<svg version="1.1" id="Слой_1" xmlns="http://www.w3.org/2000/svg" xmlns:xlink="http://www.w3.org/1999/xlink" x="0px" y="0px"
	 viewBox="0 0 501.6 243.7" style="enable-background:new 0 0 501.6 243.7;" xml:space="preserve">
	<path d="M18.9,91.8H0V1.4h51.8v15.7H18.9v23.3h30.7v15.6H18.9V91.8z"/>
	<path d="M121.5,91.8h-52V1.4h52v15.7H88.6V37h30.6v15.7H88.6V76h32.9V91.8z"/>
	<path d="M140.4,91.8V1.4h19.2V76h36.7v15.8H140.4z"/>
	<path d="M211.9,91.8V1.4h19.2V76h36.7v15.8H211.9z"/>
	<path d="M364.2,46.5c0,15-3.7,26.5-11.1,34.5S335,93,321.2,93c-13.8,0-24.5-4-31.9-12.1s-11.1-19.6-11.1-34.6s3.7-26.5,11.2-34.5
		C296.8,4,307.4,0,321.3,0s24.5,4,31.9,12S364.2,31.5,364.2,46.5z M298.2,46.5c0,10.1,1.9,17.7,5.7,22.8s9.6,7.7,17.2,7.7
		c15.3,0,22.9-10.2,22.9-30.5c0-20.4-7.6-30.5-22.8-30.5c-7.6,0-13.4,2.6-17.2,7.7S298.2,36.4,298.2,46.5z"/>
	<path d="M470.3,91.8h-21.8l-12.2-47.5c-0.5-1.7-1.2-5.2-2.3-10.5c-1.1-5.3-1.7-8.8-1.9-10.7c-0.2,2.2-0.9,5.8-1.9,10.7
		c-1,4.9-1.8,8.4-2.3,10.5l-12.2,47.3H394L370.9,1.4h18.9l11.6,49.3c2,9.1,3.5,17,4.4,23.7c0.2-2.3,0.8-6,1.7-10.9s1.7-8.7,2.5-11.5
		l13.2-50.6h18.1L454.4,52c0.6,2.3,1.3,5.7,2.2,10.4c0.9,4.7,1.5,8.7,2,12c0.4-3.2,1.1-7.2,2-12s1.7-8.7,2.5-11.7l11.5-49.3h18.9
		L470.3,91.8z"/>
	<path d="M18.9,243.7H0v-90.4h51.8V169H18.9v23.3h30.7V208H18.9V243.7z"/>
	<path d="M123.6,243.7l-6.6-21.5H84.1l-6.6,21.5H56.9L88.8,153h23.4l32,90.7H123.6z M112.4,206.1c-6.1-19.5-9.5-30.5-10.2-33.1
		s-1.3-4.6-1.6-6.1c-1.4,5.3-5.3,18.3-11.7,39.1H112.4z"/>
	<path d="M174.7,209v34.7h-19.2v-90.4h26.3c12.3,0,21.4,2.2,27.3,6.7c5.9,4.5,8.8,11.3,8.8,20.4c0,5.3-1.5,10-4.4,14.2
		s-7.1,7.4-12.4,9.7l26.6,39.4h-21.3L184.9,209H174.7z M174.7,193.4h6.2c6.1,0,10.5-1,13.4-3c2.9-2,4.3-5.2,4.3-9.5
		c0-4.3-1.5-7.3-4.4-9.1c-2.9-1.8-7.5-2.7-13.7-2.7h-5.8V193.4z"/>
	<path d="M277.4,243.7l-21.8-70.9h-0.6c0.8,14.4,1.2,24,1.2,28.9v42h-17.1v-90.4h26.1l21.4,69.1h0.4l22.7-69.1h26.1v90.4h-17.9
		v-42.8c0-2,0-4.3,0.1-7c0.1-2.6,0.3-9.6,0.8-21h-0.6L295,243.7H277.4z"/>
	<path d="M410.6,243.7h-52v-90.4h52V169h-32.9v19.8h30.6v15.7h-30.6v23.3h32.9V243.7z"/>
	<path d="M448.6,209v34.7h-19.2v-90.4h26.3c12.3,0,21.4,2.2,27.3,6.7c5.9,4.5,8.8,11.3,8.8,20.4c0,5.3-1.5,10-4.4,14.2
		s-7.1,7.4-12.4,9.7l26.6,39.4h-21.3L458.8,209H448.6z M448.6,193.4h6.2c6.1,0,10.5-1,13.4-3c2.9-2,4.3-5.2,4.3-9.5
		c0-4.3-1.5-7.3-4.4-9.1c-2.9-1.8-7.5-2.7-13.7-2.7h-5.8V193.4z"/>

</svg>
